<svg xmlns="http://www.w3.org/2000/svg" xmlns:xlink="http://www.w3.org/1999/xlink" width="500" zoomAndPan="magnify" viewBox="0 0 375 374.999991" height="500" preserveAspectRatio="xMidYMid meet" version="1.0"><defs><clipPath id="f5b1cfc95f"><path d="M 162 146 L 212 146 L 212 171 L 162 171 Z M 162 146 " clip-rule="nonzero"/></clipPath><clipPath id="867b758a0a"><path d="M 168.195312 89.042969 L 215.722656 168.980469 L 146.097656 210.375 L 98.570312 130.4375 Z M 168.195312 89.042969 " clip-rule="nonzero"/></clipPath><clipPath id="9e01fb7e0d"><path d="M 168.195312 89.042969 L 215.722656 168.980469 L 146.097656 210.375 L 98.570312 130.4375 Z M 168.195312 89.042969 " clip-rule="nonzero"/></clipPath><clipPath id="376f38cf11"><path d="M 161 144 L 213 144 L 213 172 L 161 172 Z M 161 144 " clip-rule="nonzero"/></clipPath><clipPath id="446f9cd6d2"><path d="M 168.195312 89.042969 L 215.722656 168.980469 L 146.097656 210.375 L 98.570312 130.4375 Z M 168.195312 89.042969 " clip-rule="nonzero"/></clipPath><clipPath id="c2cb875f17"><path d="M 168.195312 89.042969 L 215.722656 168.980469 L 146.097656 210.375 L 98.570312 130.4375 Z M 168.195312 89.042969 " clip-rule="nonzero"/></clipPath><clipPath id="5c807b5136"><path d="M 113 110 L 164 110 L 164 155 L 113 155 Z M 113 110 " clip-rule="nonzero"/></clipPath><clipPath id="059a7cbbbb"><path d="M 168.195312 89.042969 L 215.722656 168.980469 L 146.097656 210.375 L 98.570312 130.4375 Z M 168.195312 89.042969 " clip-rule="nonzero"/></clipPath><clipPath id="8b1b0a5643"><path d="M 168.195312 89.042969 L 215.722656 168.980469 L 146.097656 210.375 L 98.570312 130.4375 Z M 168.195312 89.042969 " clip-rule="nonzero"/></clipPath><clipPath id="c0f7250a67"><path d="M 112 153 L 128 153 L 128 159 L 112 159 Z M 112 153 " clip-rule="nonzero"/></clipPath><clipPath id="6c2c4f65f0"><path d="M 168.195312 89.042969 L 215.722656 168.980469 L 146.097656 210.375 L 98.570312 130.4375 Z M 168.195312 89.042969 " clip-rule="nonzero"/></clipPath><clipPath id="16fdff597e"><path d="M 168.195312 89.042969 L 215.722656 168.980469 L 146.097656 210.375 L 98.570312 130.4375 Z M 168.195312 89.042969 " clip-rule="nonzero"/></clipPath><clipPath id="093b86a764"><path d="M 168 131 L 188 131 L 188 183 L 168 183 Z M 168 131 " clip-rule="nonzero"/></clipPath><clipPath id="42777eb8d7"><path d="M 110.945312 183.671875 L 184.285156 126.484375 L 234.089844 190.363281 L 160.75 247.546875 Z M 110.945312 183.671875 " clip-rule="nonzero"/></clipPath><clipPath id="db091d7892"><path d="M 110.945312 183.671875 L 184.285156 126.484375 L 234.089844 190.363281 L 160.75 247.546875 Z M 110.945312 183.671875 " clip-rule="nonzero"/></clipPath><clipPath id="f612ff42d0"><path d="M 166 129 L 189 129 L 189 184 L 166 184 Z M 166 129 " clip-rule="nonzero"/></clipPath><clipPath id="bddc36de16"><path d="M 110.945312 183.671875 L 184.285156 126.484375 L 234.089844 190.363281 L 160.75 247.546875 Z M 110.945312 183.671875 " clip-rule="nonzero"/></clipPath><clipPath id="404d260899"><path d="M 110.945312 183.671875 L 184.285156 126.484375 L 234.089844 190.363281 L 160.75 247.546875 Z M 110.945312 183.671875 " clip-rule="nonzero"/></clipPath><clipPath id="c624c67131"><path d="M 136 180 L 182 180 L 182 233 L 136 233 Z M 136 180 " clip-rule="nonzero"/></clipPath><clipPath id="70a5b8a59d"><path d="M 110.945312 183.671875 L 184.285156 126.484375 L 234.089844 190.363281 L 160.75 247.546875 Z M 110.945312 183.671875 " clip-rule="nonzero"/></clipPath><clipPath id="d17fd67bff"><path d="M 110.945312 183.671875 L 184.285156 126.484375 L 234.089844 190.363281 L 160.75 247.546875 Z M 110.945312 183.671875 " clip-rule="nonzero"/></clipPath><clipPath id="2d84d4069e"><path d="M 181 215 L 185 215 L 185 231 L 181 231 Z M 181 215 " clip-rule="nonzero"/></clipPath><clipPath id="7c76a10980"><path d="M 110.945312 183.671875 L 184.285156 126.484375 L 234.089844 190.363281 L 160.75 247.546875 Z M 110.945312 183.671875 " clip-rule="nonzero"/></clipPath><clipPath id="5388da0745"><path d="M 110.945312 183.671875 L 184.285156 126.484375 L 234.089844 190.363281 L 160.75 247.546875 Z M 110.945312 183.671875 " clip-rule="nonzero"/></clipPath><clipPath id="6f2863532a"><path d="M 170 129 L 198 129 L 198 178 L 170 178 Z M 170 129 " clip-rule="nonzero"/></clipPath><clipPath id="10196b4461"><path d="M 155.324219 218.414062 L 169.289062 126.46875 L 249.371094 138.632812 L 235.40625 230.578125 Z M 155.324219 218.414062 " clip-rule="nonzero"/></clipPath><clipPath id="8c4d599634"><path d="M 155.324219 218.414062 L 169.289062 126.46875 L 249.371094 138.632812 L 235.40625 230.578125 Z M 155.324219 218.414062 " clip-rule="nonzero"/></clipPath><clipPath id="2b19424823"><path d="M 169 128 L 199 128 L 199 180 L 169 180 Z M 169 128 " clip-rule="nonzero"/></clipPath><clipPath id="4b5b0deb86"><path d="M 155.324219 218.414062 L 169.289062 126.46875 L 249.371094 138.632812 L 235.40625 230.578125 Z M 155.324219 218.414062 " clip-rule="nonzero"/></clipPath><clipPath id="dca1f0cafe"><path d="M 155.324219 218.414062 L 169.289062 126.46875 L 249.371094 138.632812 L 235.40625 230.578125 Z M 155.324219 218.414062 " clip-rule="nonzero"/></clipPath><clipPath id="786e30e707"><path d="M 190 175 L 236 175 L 236 224 L 190 224 Z M 190 175 " clip-rule="nonzero"/></clipPath><clipPath id="4d2e612a62"><path d="M 155.324219 218.414062 L 169.289062 126.46875 L 249.371094 138.632812 L 235.40625 230.578125 Z M 155.324219 218.414062 " clip-rule="nonzero"/></clipPath><clipPath id="674ca32d9e"><path d="M 155.324219 218.414062 L 169.289062 126.46875 L 249.371094 138.632812 L 235.40625 230.578125 Z M 155.324219 218.414062 " clip-rule="nonzero"/></clipPath><clipPath id="9f35a6d2ba"><path d="M 230 191 L 240 191 L 240 204 L 230 204 Z M 230 191 " clip-rule="nonzero"/></clipPath><clipPath id="e88e32f611"><path d="M 155.324219 218.414062 L 169.289062 126.46875 L 249.371094 138.632812 L 235.40625 230.578125 Z M 155.324219 218.414062 " clip-rule="nonzero"/></clipPath><clipPath id="a5dd992c71"><path d="M 155.324219 218.414062 L 169.289062 126.46875 L 249.371094 138.632812 L 235.40625 230.578125 Z M 155.324219 218.414062 " clip-rule="nonzero"/></clipPath><clipPath id="24d9556444"><path d="M 173 142 L 195 142 L 195 191 L 173 191 Z M 173 142 " clip-rule="nonzero"/></clipPath><clipPath id="602b1b4c71"><path d="M 249.703125 145.816406 L 174.976562 194.617188 L 132.324219 129.3125 L 207.050781 80.511719 Z M 249.703125 145.816406 " clip-rule="nonzero"/></clipPath><clipPath id="5e2b50cc06"><path d="M 249.703125 145.816406 L 174.976562 194.617188 L 132.324219 129.3125 L 207.050781 80.511719 Z M 249.703125 145.816406 " clip-rule="nonzero"/></clipPath><clipPath id="403ae82ec4"><path d="M 171 141 L 196 141 L 196 192 L 171 192 Z M 171 141 " clip-rule="nonzero"/></clipPath><clipPath id="5a04abc85d"><path d="M 249.703125 145.816406 L 174.976562 194.617188 L 132.324219 129.3125 L 207.050781 80.511719 Z M 249.703125 145.816406 " clip-rule="nonzero"/></clipPath><clipPath id="8a72b7587f"><path d="M 249.703125 145.816406 L 174.976562 194.617188 L 132.324219 129.3125 L 207.050781 80.511719 Z M 249.703125 145.816406 " clip-rule="nonzero"/></clipPath><clipPath id="663113c3d9"><path d="M 184 94 L 228 94 L 228 144 L 184 144 Z M 184 94 " clip-rule="nonzero"/></clipPath><clipPath id="4607c91cf9"><path d="M 249.703125 145.816406 L 174.976562 194.617188 L 132.324219 129.3125 L 207.050781 80.511719 Z M 249.703125 145.816406 " clip-rule="nonzero"/></clipPath><clipPath id="d7d69cf784"><path d="M 249.703125 145.816406 L 174.976562 194.617188 L 132.324219 129.3125 L 207.050781 80.511719 Z M 249.703125 145.816406 " clip-rule="nonzero"/></clipPath><clipPath id="d8ef26e970"><path d="M 181 95 L 186 95 L 186 110 L 181 110 Z M 181 95 " clip-rule="nonzero"/></clipPath><clipPath id="7693f516e8"><path d="M 249.703125 145.816406 L 174.976562 194.617188 L 132.324219 129.3125 L 207.050781 80.511719 Z M 249.703125 145.816406 " clip-rule="nonzero"/></clipPath><clipPath id="1184fbdb00"><path d="M 249.703125 145.816406 L 174.976562 194.617188 L 132.324219 129.3125 L 207.050781 80.511719 Z M 249.703125 145.816406 " clip-rule="nonzero"/></clipPath><clipPath id="ad79eaf5f5"><path d="M 175 138 L 198 138 L 198 187 L 175 187 Z M 175 138 " clip-rule="nonzero"/></clipPath><clipPath id="5ea3be4a32"><path d="M 218.203125 102.605469 L 198.371094 189.625 L 122.324219 172.292969 L 142.152344 85.277344 Z M 218.203125 102.605469 " clip-rule="nonzero"/></clipPath><clipPath id="3e11288531"><path d="M 218.203125 102.605469 L 198.371094 189.625 L 122.324219 172.292969 L 142.152344 85.277344 Z M 218.203125 102.605469 " clip-rule="nonzero"/></clipPath><clipPath id="6eeb972abc"><path d="M 174 137 L 200 137 L 200 188 L 174 188 Z M 174 137 " clip-rule="nonzero"/></clipPath><clipPath id="ed12e89454"><path d="M 218.203125 102.605469 L 198.371094 189.625 L 122.324219 172.292969 L 142.152344 85.277344 Z M 218.203125 102.605469 " clip-rule="nonzero"/></clipPath><clipPath id="3f3f5652f4"><path d="M 218.203125 102.605469 L 198.371094 189.625 L 122.324219 172.292969 L 142.152344 85.277344 Z M 218.203125 102.605469 " clip-rule="nonzero"/></clipPath><clipPath id="b983c0eee1"><path d="M 140 94 L 184 94 L 184 141 L 140 141 Z M 140 94 " clip-rule="nonzero"/></clipPath><clipPath id="5355934b57"><path d="M 218.203125 102.605469 L 198.371094 189.625 L 122.324219 172.292969 L 142.152344 85.277344 Z M 218.203125 102.605469 " clip-rule="nonzero"/></clipPath><clipPath id="18a21f4e1c"><path d="M 218.203125 102.605469 L 198.371094 189.625 L 122.324219 172.292969 L 142.152344 85.277344 Z M 218.203125 102.605469 " clip-rule="nonzero"/></clipPath><clipPath id="5f5a3976c1"><path d="M 136 110 L 145 110 L 145 124 L 136 124 Z M 136 110 " clip-rule="nonzero"/></clipPath><clipPath id="aed13bef10"><path d="M 218.203125 102.605469 L 198.371094 189.625 L 122.324219 172.292969 L 142.152344 85.277344 Z M 218.203125 102.605469 " clip-rule="nonzero"/></clipPath><clipPath id="5c0c321caf"><path d="M 218.203125 102.605469 L 198.371094 189.625 L 122.324219 172.292969 L 142.152344 85.277344 Z M 218.203125 102.605469 " clip-rule="nonzero"/></clipPath><clipPath id="6c008e7d7d"><path d="M 150 155 L 203 155 L 203 173 L 150 173 Z M 150 155 " clip-rule="nonzero"/></clipPath><clipPath id="bad65b3812"><path d="M 208.292969 228.316406 L 145.257812 159.9375 L 204.808594 105.035156 L 267.847656 173.410156 Z M 208.292969 228.316406 " clip-rule="nonzero"/></clipPath><clipPath id="5bab45cdb9"><path d="M 208.292969 228.316406 L 145.257812 159.9375 L 204.808594 105.035156 L 267.847656 173.410156 Z M 208.292969 228.316406 " clip-rule="nonzero"/></clipPath><clipPath id="0771e32857"><path d="M 148 154 L 204 154 L 204 174 L 148 174 Z M 148 154 " clip-rule="nonzero"/></clipPath><clipPath id="3c0a71d694"><path d="M 208.292969 228.316406 L 145.257812 159.9375 L 204.808594 105.035156 L 267.847656 173.410156 Z M 208.292969 228.316406 " clip-rule="nonzero"/></clipPath><clipPath id="10273bd54d"><path d="M 208.292969 228.316406 L 145.257812 159.9375 L 204.808594 105.035156 L 267.847656 173.410156 Z M 208.292969 228.316406 " clip-rule="nonzero"/></clipPath><clipPath id="736d00d03a"><path d="M 200 155 L 253 155 L 253 201 L 200 201 Z M 200 155 " clip-rule="nonzero"/></clipPath><clipPath id="dabe18ff72"><path d="M 208.292969 228.316406 L 145.257812 159.9375 L 204.808594 105.035156 L 267.847656 173.410156 Z M 208.292969 228.316406 " clip-rule="nonzero"/></clipPath><clipPath id="14ed31034c"><path d="M 208.292969 228.316406 L 145.257812 159.9375 L 204.808594 105.035156 L 267.847656 173.410156 Z M 208.292969 228.316406 " clip-rule="nonzero"/></clipPath><clipPath id="51f355ec8a"><path d="M 233 151 L 250 151 L 250 155 L 233 155 Z M 233 151 " clip-rule="nonzero"/></clipPath><clipPath id="ac1615c864"><path d="M 208.292969 228.316406 L 145.257812 159.9375 L 204.808594 105.035156 L 267.847656 173.410156 Z M 208.292969 228.316406 " clip-rule="nonzero"/></clipPath><clipPath id="94daf6cfa8"><path d="M 208.292969 228.316406 L 145.257812 159.9375 L 204.808594 105.035156 L 267.847656 173.410156 Z M 208.292969 228.316406 " clip-rule="nonzero"/></clipPath><clipPath id="b1827f0061"><path d="M 160 154 L 206 154 L 206 181 L 160 181 Z M 160 154 " clip-rule="nonzero"/></clipPath><clipPath id="d674224871"><path d="M 245.558594 194.714844 L 157.167969 182.351562 L 167.972656 105.105469 L 256.363281 117.46875 Z M 245.558594 194.714844 " clip-rule="nonzero"/></clipPath><clipPath id="2e366ede5e"><path d="M 245.558594 194.714844 L 157.167969 182.351562 L 167.972656 105.105469 L 256.363281 117.46875 Z M 245.558594 194.714844 " clip-rule="nonzero"/></clipPath><clipPath id="ed42ab7147"><path d="M 158 153 L 208 153 L 208 183 L 158 183 Z M 158 153 " clip-rule="nonzero"/></clipPath><clipPath id="e3b0eb12ed"><path d="M 245.558594 194.714844 L 157.167969 182.351562 L 167.972656 105.105469 L 256.363281 117.46875 Z M 245.558594 194.714844 " clip-rule="nonzero"/></clipPath><clipPath id="fecc429593"><path d="M 245.558594 194.714844 L 157.167969 182.351562 L 167.972656 105.105469 L 256.363281 117.46875 Z M 245.558594 194.714844 " clip-rule="nonzero"/></clipPath><clipPath id="63773aafe3"><path d="M 204 118 L 251 118 L 251 161 L 204 161 Z M 204 118 " clip-rule="nonzero"/></clipPath><clipPath id="731b3b9715"><path d="M 245.558594 194.714844 L 157.167969 182.351562 L 167.972656 105.105469 L 256.363281 117.46875 Z M 245.558594 194.714844 " clip-rule="nonzero"/></clipPath><clipPath id="a5aa3300ad"><path d="M 245.558594 194.714844 L 157.167969 182.351562 L 167.972656 105.105469 L 256.363281 117.46875 Z M 245.558594 194.714844 " clip-rule="nonzero"/></clipPath><clipPath id="9ceaec7cbe"><path d="M 218 113 L 231 113 L 231 124 L 218 124 Z M 218 113 " clip-rule="nonzero"/></clipPath><clipPath id="69801ffec4"><path d="M 245.558594 194.714844 L 157.167969 182.351562 L 167.972656 105.105469 L 256.363281 117.46875 Z M 245.558594 194.714844 " clip-rule="nonzero"/></clipPath><clipPath id="1f74fdd80b"><path d="M 245.558594 194.714844 L 157.167969 182.351562 L 167.972656 105.105469 L 256.363281 117.46875 Z M 245.558594 194.714844 " clip-rule="nonzero"/></clipPath><clipPath id="b9222d621e"><path d="M 159 146 L 204 146 L 204 176 L 159 176 Z M 159 146 " clip-rule="nonzero"/></clipPath><clipPath id="66e96c3816"><path d="M 117.589844 137.511719 L 206.515625 145.09375 L 199.890625 222.8125 L 110.964844 215.230469 Z M 117.589844 137.511719 " clip-rule="nonzero"/></clipPath><clipPath id="734949631b"><path d="M 117.589844 137.511719 L 206.515625 145.09375 L 199.890625 222.8125 L 110.964844 215.230469 Z M 117.589844 137.511719 " clip-rule="nonzero"/></clipPath><clipPath id="5cf6af24dd"><path d="M 157 145 L 206 145 L 206 177 L 157 177 Z M 157 145 " clip-rule="nonzero"/></clipPath><clipPath id="26668496ff"><path d="M 117.589844 137.511719 L 206.515625 145.09375 L 199.890625 222.8125 L 110.964844 215.230469 Z M 117.589844 137.511719 " clip-rule="nonzero"/></clipPath><clipPath id="c8de63612a"><path d="M 117.589844 137.511719 L 206.515625 145.09375 L 199.890625 222.8125 L 110.964844 215.230469 Z M 117.589844 137.511719 " clip-rule="nonzero"/></clipPath><clipPath id="5084eb30d2"><path d="M 115 171 L 162 171 L 162 214 L 115 214 Z M 115 171 " clip-rule="nonzero"/></clipPath><clipPath id="c29ea97b38"><path d="M 117.589844 137.511719 L 206.515625 145.09375 L 199.890625 222.8125 L 110.964844 215.230469 Z M 117.589844 137.511719 " clip-rule="nonzero"/></clipPath><clipPath id="cab3eb2557"><path d="M 117.589844 137.511719 L 206.515625 145.09375 L 199.890625 222.8125 L 110.964844 215.230469 Z M 117.589844 137.511719 " clip-rule="nonzero"/></clipPath><clipPath id="f99faba7fd"><path d="M 137 207 L 149 207 L 149 218 L 137 218 Z M 137 207 " clip-rule="nonzero"/></clipPath><clipPath id="2c0e85ef09"><path d="M 117.589844 137.511719 L 206.515625 145.09375 L 199.890625 222.8125 L 110.964844 215.230469 Z M 117.589844 137.511719 " clip-rule="nonzero"/></clipPath><clipPath id="f4ee016907"><path d="M 117.589844 137.511719 L 206.515625 145.09375 L 199.890625 222.8125 L 110.964844 215.230469 Z M 117.589844 137.511719 " clip-rule="nonzero"/></clipPath><clipPath id="4396f59489"><path d="M 155 151 L 207 151 L 207 164 L 155 164 Z M 155 151 " clip-rule="nonzero"/></clipPath><clipPath id="ee692deeb2"><path d="M 137.980469 104.835938 L 210.90625 156.289062 L 165.9375 220.023438 L 93.011719 168.570312 Z M 137.980469 104.835938 " clip-rule="nonzero"/></clipPath><clipPath id="7582a878d1"><path d="M 137.980469 104.835938 L 210.90625 156.289062 L 165.9375 220.023438 L 93.011719 168.570312 Z M 137.980469 104.835938 " clip-rule="nonzero"/></clipPath><clipPath id="be21b9a9f4"><path d="M 154 149 L 209 149 L 209 166 L 154 166 Z M 154 149 " clip-rule="nonzero"/></clipPath><clipPath id="a687bf383a"><path d="M 137.980469 104.835938 L 210.90625 156.289062 L 165.9375 220.023438 L 93.011719 168.570312 Z M 137.980469 104.835938 " clip-rule="nonzero"/></clipPath><clipPath id="0893eab2d9"><path d="M 137.980469 104.835938 L 210.90625 156.289062 L 165.9375 220.023438 L 93.011719 168.570312 Z M 137.980469 104.835938 " clip-rule="nonzero"/></clipPath><clipPath id="7242cf3de4"><path d="M 107 136 L 157 136 L 157 180 L 107 180 Z M 107 136 " clip-rule="nonzero"/></clipPath><clipPath id="45da204e29"><path d="M 137.980469 104.835938 L 210.90625 156.289062 L 165.9375 220.023438 L 93.011719 168.570312 Z M 137.980469 104.835938 " clip-rule="nonzero"/></clipPath><clipPath id="c6fa5a584e"><path d="M 137.980469 104.835938 L 210.90625 156.289062 L 165.9375 220.023438 L 93.011719 168.570312 Z M 137.980469 104.835938 " clip-rule="nonzero"/></clipPath><clipPath id="024a4c2680"><path d="M 114 180 L 130 180 L 130 185 L 114 185 Z M 114 180 " clip-rule="nonzero"/></clipPath><clipPath id="a11991d16b"><path d="M 137.980469 104.835938 L 210.90625 156.289062 L 165.9375 220.023438 L 93.011719 168.570312 Z M 137.980469 104.835938 " clip-rule="nonzero"/></clipPath><clipPath id="561dc2a144"><path d="M 137.980469 104.835938 L 210.90625 156.289062 L 165.9375 220.023438 L 93.011719 168.570312 Z M 137.980469 104.835938 " clip-rule="nonzero"/></clipPath><clipPath id="a6c333545d"><path d="M 160 136 L 182 136 L 182 188 L 160 188 Z M 160 136 " clip-rule="nonzero"/></clipPath><clipPath id="adb191ecce"><path d="M 134.257812 221.777344 L 160.917969 132.679688 L 238.519531 155.902344 L 211.859375 244.996094 Z M 134.257812 221.777344 " clip-rule="nonzero"/></clipPath><clipPath id="3c5c6d8bbe"><path d="M 134.257812 221.777344 L 160.917969 132.679688 L 238.519531 155.902344 L 211.859375 244.996094 Z M 134.257812 221.777344 " clip-rule="nonzero"/></clipPath><clipPath id="38da802ff4"><path d="M 159 135 L 183 135 L 183 189 L 159 189 Z M 159 135 " clip-rule="nonzero"/></clipPath><clipPath id="06409fa749"><path d="M 134.257812 221.777344 L 160.917969 132.679688 L 238.519531 155.902344 L 211.859375 244.996094 Z M 134.257812 221.777344 " clip-rule="nonzero"/></clipPath><clipPath id="98b4d4e89f"><path d="M 134.257812 221.777344 L 160.917969 132.679688 L 238.519531 155.902344 L 211.859375 244.996094 Z M 134.257812 221.777344 " clip-rule="nonzero"/></clipPath><clipPath id="59a6dffc49"><path d="M 170 185 L 216 185 L 216 235 L 170 235 Z M 170 185 " clip-rule="nonzero"/></clipPath><clipPath id="dd7ba55438"><path d="M 134.257812 221.777344 L 160.917969 132.679688 L 238.519531 155.902344 L 211.859375 244.996094 Z M 134.257812 221.777344 " clip-rule="nonzero"/></clipPath><clipPath id="bb5d168ef6"><path d="M 134.257812 221.777344 L 160.917969 132.679688 L 238.519531 155.902344 L 211.859375 244.996094 Z M 134.257812 221.777344 " clip-rule="nonzero"/></clipPath><clipPath id="602f7d406d"><path d="M 212 205 L 220 205 L 220 219 L 212 219 Z M 212 205 " clip-rule="nonzero"/></clipPath><clipPath id="d594a26f3f"><path d="M 134.257812 221.777344 L 160.917969 132.679688 L 238.519531 155.902344 L 211.859375 244.996094 Z M 134.257812 221.777344 " clip-rule="nonzero"/></clipPath><clipPath id="6dc62b6246"><path d="M 134.257812 221.777344 L 160.917969 132.679688 L 238.519531 155.902344 L 211.859375 244.996094 Z M 134.257812 221.777344 " clip-rule="nonzero"/></clipPath></defs><g clip-path="url(#f5b1cfc95f)"><g clip-path="url(#867b758a0a)"><g clip-path="url(#9e01fb7e0d)"><path fill="#826a45" d="M 162.128906 147.761719 C 170.910156 155.117188 180.605469 161.433594 190.929688 166.386719 C 196.269531 168.957031 202.238281 171.25 208.039062 169.929688 C 209.222656 169.671875 210.441406 169.144531 210.9375 168.058594 C 211.546875 166.753906 210.808594 165.261719 209.921875 164.105469 C 207.730469 161.25 204.660156 159.164062 201.550781 157.351562 C 189.714844 150.523438 176.210938 146.714844 162.5625 146.414062 " fill-opacity="1" fill-rule="nonzero"/></g></g></g><g clip-path="url(#376f38cf11)"><g clip-path="url(#446f9cd6d2)"><g clip-path="url(#c2cb875f17)"><path fill="#826a45" d="M 161.46875 148.402344 C 167.921875 153.921875 174.847656 158.914062 182.167969 163.226562 C 188.589844 167.035156 195.851562 171.335938 203.519531 171.824219 C 206.394531 171.996094 210.886719 171.804688 212.328125 168.816406 C 213.769531 165.828125 211.066406 162.78125 209.039062 160.867188 C 203.460938 155.570312 195.546875 152.253906 188.375 149.683594 C 180.125 146.714844 171.3125 144.972656 162.527344 144.851562 C 160.484375 144.828125 160.5 147.9375 162.527344 148.019531 C 175.90625 148.53125 188.835938 151.789062 200.449219 158.5 C 203.433594 160.191406 206.769531 162.21875 208.699219 165.128906 C 209.019531 165.585938 209.636719 166.457031 209.511719 167.074219 C 209.308594 167.988281 207.957031 168.296875 207.242188 168.425781 C 205.664062 168.769531 203.984375 168.777344 202.351562 168.609375 C 195.675781 167.875 189.199219 164.148438 183.394531 160.964844 C 176.082031 156.992188 169.195312 152.324219 162.742188 147.046875 C 161.871094 146.328125 160.550781 147.609375 161.46875 148.402344 Z M 161.46875 148.402344 " fill-opacity="1" fill-rule="nonzero"/></g></g></g><g clip-path="url(#5c807b5136)"><g clip-path="url(#059a7cbbbb)"><g clip-path="url(#8b1b0a5643)"><path fill="#ffde59" d="M 161.03125 144.5 C 149.234375 148.644531 136.894531 153.703125 124.191406 150.660156 C 122.578125 150.28125 116.089844 148.691406 116.550781 146.386719 C 117.011719 144.082031 121.429688 143.683594 123.167969 143.445312 C 129.289062 142.578125 135.535156 142.925781 141.609375 143.816406 C 148.460938 144.84375 155.175781 146.644531 161.832031 148.429688 C 161.984375 147.351562 162.097656 146.292969 162.226562 145.175781 C 149.78125 146.484375 137.152344 145.476562 125.109375 142.042969 C 122.417969 141.265625 118.472656 140.542969 116.855469 137.988281 C 114.476562 134.152344 119.355469 133.035156 122.1875 132.886719 C 127.984375 132.558594 133.574219 134.878906 138.679688 137.390625 C 145.609375 140.796875 152.375 144.597656 159.222656 148.203125 C 159.589844 147.238281 159.996094 146.257812 160.363281 145.292969 C 152.832031 143.285156 145.277344 141.242188 138.144531 138.152344 C 134.792969 136.679688 131.464844 134.996094 128.414062 132.945312 C 125.566406 131.074219 121.175781 127.347656 123.351562 123.429688 C 125.328125 119.925781 130.25 120.960938 133.046875 122.667969 C 136.28125 124.605469 139.070312 127.550781 141.835938 130.117188 C 148.015625 135.851562 153.859375 141.933594 159.382812 148.304688 C 159.886719 147.410156 160.375 146.476562 160.882812 145.582031 C 154.285156 143.066406 148.148438 138.988281 143.257812 133.925781 C 138.675781 129.222656 134.113281 122.875 134.429688 116 C 134.492188 115.023438 134.277344 113.914062 135.609375 113.816406 C 136.332031 113.78125 137.429688 114.464844 138.050781 114.839844 C 139.34375 115.605469 140.472656 116.667969 141.429688 117.78125 C 143.574219 120.21875 145.125 123.160156 146.703125 125.984375 C 150.726562 133.25 154.84375 140.503906 158.9375 147.726562 C 160.183594 149.90625 163.550781 147.90625 162.265625 145.746094 C 158.230469 138.789062 154.230469 131.808594 150.140625 124.933594 C 147.195312 119.898438 144.042969 114.097656 138.457031 111.527344 C 136.300781 110.484375 133.347656 109.761719 131.957031 112.421875 C 130.773438 114.757812 131.152344 118.148438 131.675781 120.609375 C 132.941406 126.738281 136.941406 132.132812 141.21875 136.574219 C 146.523438 142.085938 152.921875 146.105469 160.082031 148.730469 C 161.726562 149.335938 162.554688 147.0625 161.582031 146.007812 C 156.238281 140.023438 150.613281 134.304688 144.6875 128.917969 C 140.269531 124.90625 134.710938 118.554688 128.269531 118.378906 C 122.664062 118.195312 118.527344 122.980469 120.417969 128.492188 C 121.507812 131.65625 124.242188 133.84375 126.949219 135.648438 C 129.921875 137.644531 133.074219 139.285156 136.332031 140.765625 C 143.808594 144.097656 151.695312 146.289062 159.5625 148.445312 C 161.277344 148.910156 162.292969 146.375 160.707031 145.535156 C 153.515625 141.691406 146.335938 137.691406 138.964844 134.199219 C 133.136719 131.476562 126.792969 129.304688 120.285156 130.105469 C 117.335938 130.472656 113.976562 131.480469 113.203125 134.761719 C 112.527344 137.539062 113.992188 140.335938 116.1875 141.949219 C 118.976562 144.054688 122.738281 144.886719 126.027344 145.753906 C 129.605469 146.695312 133.230469 147.460938 136.878906 148.015625 C 145.289062 149.253906 153.777344 149.457031 162.261719 148.570312 C 164.046875 148.402344 164.542969 145.828125 162.65625 145.316406 C 149.050781 141.671875 133.613281 137.777344 119.535156 141.246094 C 117.34375 141.808594 114.753906 142.949219 113.765625 145.121094 C 112.484375 147.964844 114.71875 150.300781 117.078125 151.523438 C 123.070312 154.691406 130.054688 155.441406 136.734375 154.6875 C 145.558594 153.703125 153.855469 150.253906 161.828125 146.503906 C 162.96875 145.925781 162.164062 144.074219 161.03125 144.5 Z M 161.03125 144.5 " fill-opacity="1" fill-rule="nonzero"/></g></g></g><g clip-path="url(#c0f7250a67)"><g clip-path="url(#6c2c4f65f0)"><g clip-path="url(#16fdff597e)"><path fill="#ffde59" d="M 113.136719 154.558594 C 117.363281 156.996094 121.953125 158.226562 126.832031 158.101562 C 127.648438 158.058594 127.640625 156.878906 126.835938 156.859375 C 122.265625 156.753906 117.828125 155.53125 113.902344 153.261719 C 113.027344 152.789062 112.320312 154.101562 113.136719 154.558594 Z M 113.136719 154.558594 " fill-opacity="1" fill-rule="nonzero"/></g></g></g><g clip-path="url(#093b86a764)"><g clip-path="url(#42777eb8d7)"><g clip-path="url(#db091d7892)"><path fill="#826a45" d="M 169.957031 182.320312 C 176.15625 172.683594 181.203125 162.273438 184.824219 151.410156 C 186.703125 145.789062 188.226562 139.578125 186.191406 133.988281 C 185.785156 132.847656 185.109375 131.703125 183.96875 131.351562 C 182.601562 130.90625 181.210938 131.828125 180.175781 132.851562 C 177.617188 135.386719 175.933594 138.695312 174.523438 142.007812 C 169.234375 154.605469 167.152344 168.476562 168.566406 182.054688 " fill-opacity="1" fill-rule="nonzero"/></g></g></g><g clip-path="url(#f612ff42d0)"><g clip-path="url(#bddc36de16)"><g clip-path="url(#404d260899)"><path fill="#826a45" d="M 170.675781 182.894531 C 175.34375 175.800781 179.425781 168.300781 182.789062 160.496094 C 185.757812 153.648438 189.113281 145.90625 188.636719 138.234375 C 188.445312 135.359375 187.691406 130.929688 184.546875 129.875 C 181.402344 128.816406 178.71875 131.882812 177.074219 134.136719 C 172.515625 140.332031 170.21875 148.601562 168.570312 156.039062 C 166.664062 164.597656 166.039062 173.554688 167.019531 182.289062 C 167.253906 184.320312 170.335938 183.914062 170.164062 181.890625 C 168.992188 168.554688 170.601562 155.320312 175.800781 142.953125 C 177.105469 139.777344 178.699219 136.214844 181.34375 133.9375 C 181.753906 133.5625 182.542969 132.839844 183.171875 132.886719 C 184.101562 132.972656 184.578125 134.277344 184.796875 134.96875 C 185.335938 136.492188 185.554688 138.15625 185.59375 139.800781 C 185.703125 146.515625 182.816406 153.40625 180.386719 159.5625 C 177.363281 167.316406 173.597656 174.734375 169.171875 181.796875 C 168.570312 182.753906 170.003906 183.902344 170.675781 182.894531 Z M 170.675781 182.894531 " fill-opacity="1" fill-rule="nonzero"/></g></g></g><g clip-path="url(#c624c67131)"><g clip-path="url(#70a5b8a59d)"><g clip-path="url(#d17fd67bff)"><path fill="#ffde59" d="M 166.863281 183.816406 C 172.453125 195 179.019531 206.609375 177.59375 219.59375 C 177.421875 221.242188 176.660156 227.878906 174.316406 227.710938 C 171.972656 227.539062 171.023438 223.207031 170.566406 221.515625 C 168.9375 215.550781 168.496094 209.308594 168.621094 203.167969 C 168.78125 196.246094 169.722656 189.355469 170.660156 182.527344 C 169.570312 182.515625 168.507812 182.535156 167.382812 182.546875 C 170.242188 194.726562 170.828125 207.382812 168.929688 219.765625 C 168.496094 222.53125 168.273438 226.539062 165.945312 228.460938 C 162.4375 231.304688 160.714844 226.601562 160.210938 223.8125 C 159.160156 218.101562 160.761719 212.265625 162.613281 206.882812 C 165.121094 199.582031 168.042969 192.394531 170.761719 185.148438 C 169.757812 184.902344 168.734375 184.625 167.730469 184.378906 C 166.683594 192.105469 165.605469 199.855469 163.4375 207.320312 C 162.394531 210.828125 161.140625 214.34375 159.492188 217.625 C 157.992188 220.683594 154.847656 225.511719 150.6875 223.84375 C 146.964844 222.320312 147.371094 217.308594 148.710938 214.320312 C 150.230469 210.871094 152.800781 207.730469 155 204.667969 C 159.914062 197.816406 165.214844 191.253906 170.84375 184.976562 C 169.890625 184.585938 168.902344 184.222656 167.953125 183.832031 C 166.285156 190.6875 163.011719 197.289062 158.601562 202.777344 C 154.507812 207.910156 148.785156 213.238281 141.925781 213.785156 C 140.945312 213.84375 139.871094 214.195312 139.609375 212.890625 C 139.484375 212.175781 140.023438 211 140.320312 210.339844 C 140.914062 208.957031 141.828125 207.707031 142.8125 206.617188 C 144.964844 204.183594 147.6875 202.277344 150.289062 200.355469 C 156.992188 195.453125 163.675781 190.457031 170.324219 185.488281 C 172.332031 183.976562 169.921875 180.890625 167.941406 182.433594 C 161.546875 187.3125 155.125 192.160156 148.8125 197.078125 C 144.191406 200.628906 138.832031 204.484375 136.980469 210.351562 C 136.214844 212.621094 135.871094 215.640625 138.683594 216.6875 C 141.152344 217.570312 144.464844 216.765625 146.84375 215.9375 C 152.765625 213.914062 157.617188 209.265625 161.484375 204.46875 C 166.285156 198.511719 169.46875 191.660156 171.175781 184.230469 C 171.570312 182.519531 169.210938 181.984375 168.285156 183.082031 C 163.019531 189.132812 158.054688 195.433594 153.453125 201.988281 C 150.027344 206.871094 144.425781 213.183594 145.054688 219.597656 C 145.578125 225.183594 150.84375 228.6875 156.074219 226.117188 C 159.078125 224.640625 160.90625 221.652344 162.355469 218.738281 C 163.964844 215.542969 165.195312 212.207031 166.257812 208.789062 C 168.621094 200.957031 169.804688 192.855469 170.957031 184.777344 C 171.207031 183.019531 168.5625 182.328125 167.929688 184.007812 C 165.015625 191.625 161.949219 199.25 159.414062 207.003906 C 157.441406 213.125 156.082031 219.691406 157.691406 226.046875 C 158.425781 228.925781 159.847656 232.136719 163.203125 232.488281 C 166.042969 232.8125 168.632812 231.007812 169.957031 228.625 C 171.695312 225.597656 172.050781 221.757812 172.5 218.386719 C 172.984375 214.71875 173.289062 211.023438 173.382812 207.335938 C 173.554688 198.835938 172.6875 190.390625 170.746094 182.082031 C 170.355469 180.335938 167.738281 180.164062 167.46875 182.101562 C 165.558594 196.058594 163.632812 211.863281 168.839844 225.394531 C 169.671875 227.5 171.132812 229.921875 173.410156 230.628906 C 176.390625 231.542969 178.425781 229.039062 179.34375 226.542969 C 181.734375 220.199219 181.605469 213.175781 180.015625 206.640625 C 177.929688 198.015625 173.46875 190.214844 168.75 182.777344 C 168.03125 181.71875 166.296875 182.746094 166.863281 183.816406 Z M 166.863281 183.816406 " fill-opacity="1" fill-rule="nonzero"/></g></g></g><g clip-path="url(#2d84d4069e)"><g clip-path="url(#7c76a10980)"><g clip-path="url(#5388da0745)"><path fill="#ffde59" d="M 182.847656 230.070312 C 184.738281 225.574219 185.382812 220.863281 184.644531 216.039062 C 184.503906 215.234375 183.332031 215.390625 183.414062 216.191406 C 183.882812 220.738281 183.226562 225.296875 181.464844 229.472656 C 181.109375 230.398438 182.5 230.9375 182.847656 230.070312 Z M 182.847656 230.070312 " fill-opacity="1" fill-rule="nonzero"/></g></g></g><g clip-path="url(#6f2863532a)"><g clip-path="url(#10196b4461)"><g clip-path="url(#8c4d599634)"><path fill="#826a45" d="M 197.261719 176.871094 C 195.140625 165.613281 191.648438 154.578125 186.808594 144.203125 C 184.3125 138.828125 181.152344 133.269531 175.832031 130.609375 C 174.753906 130.058594 173.472656 129.691406 172.402344 130.21875 C 171.105469 130.839844 170.726562 132.460938 170.679688 133.917969 C 170.5625 137.515625 171.617188 141.078125 172.867188 144.453125 C 177.683594 157.238281 185.710938 168.746094 196.066406 177.636719 " fill-opacity="1" fill-rule="nonzero"/></g></g></g><g clip-path="url(#2b19424823)"><g clip-path="url(#4b5b0deb86)"><g clip-path="url(#dca1f0cafe)"><path fill="#826a45" d="M 198.175781 176.792969 C 196.691406 168.433594 194.5 160.179688 191.578125 152.203125 C 189.027344 145.183594 186.144531 137.253906 180.527344 132.011719 C 178.410156 130.054688 174.816406 127.355469 171.808594 128.75 C 168.796875 130.144531 168.957031 134.214844 169.308594 136.980469 C 170.261719 144.617188 174.273438 152.199219 178.1875 158.734375 C 182.683594 166.261719 188.390625 173.199219 195.105469 178.867188 C 196.671875 180.183594 198.632812 177.765625 197.113281 176.417969 C 187.097656 167.535156 179.167969 156.816406 174.445312 144.261719 C 173.210938 141.058594 171.917969 137.378906 172.273438 133.902344 C 172.316406 133.347656 172.390625 132.28125 172.882812 131.882812 C 173.617188 131.304688 174.855469 131.925781 175.492188 132.28125 C 176.929688 133.015625 178.230469 134.074219 179.390625 135.238281 C 184.085938 140.042969 186.726562 147.03125 189.191406 153.171875 C 192.328125 160.882812 194.6875 168.859375 196.332031 177.03125 C 196.550781 178.140625 198.382812 177.988281 198.175781 176.792969 Z M 198.175781 176.792969 " fill-opacity="1" fill-rule="nonzero"/></g></g></g><g clip-path="url(#786e30e707)"><g clip-path="url(#4d2e612a62)"><g clip-path="url(#674ca32d9e)"><path fill="#ffde59" d="M 196.039062 180.085938 C 207.789062 184.367188 220.539062 188.285156 228.429688 198.695312 C 229.433594 200.007812 233.445312 205.355469 231.625 206.84375 C 229.804688 208.332031 226.136719 205.835938 224.640625 204.921875 C 219.359375 201.707031 214.75 197.476562 210.621094 192.933594 C 205.976562 187.792969 201.925781 182.140625 197.914062 176.539062 C 197.113281 177.277344 196.355469 178.023438 195.546875 178.804688 C 205.996094 185.6875 215.121094 194.476562 222.253906 204.773438 C 223.839844 207.082031 226.429688 210.144531 226.0625 213.144531 C 225.46875 217.617188 220.984375 215.386719 218.703125 213.703125 C 214.011719 210.28125 211.164062 204.941406 208.808594 199.761719 C 205.613281 192.734375 202.792969 185.503906 199.789062 178.375 C 198.890625 178.882812 197.953125 179.386719 197.058594 179.894531 C 201.609375 186.226562 206.152344 192.597656 209.707031 199.511719 C 211.363281 202.773438 212.867188 206.191406 213.925781 209.707031 C 214.941406 212.960938 215.972656 218.628906 211.804688 220.277344 C 208.054688 221.730469 204.90625 217.808594 203.824219 214.71875 C 202.554688 211.167969 202.265625 207.121094 201.757812 203.382812 C 200.617188 195.03125 199.957031 186.621094 199.730469 178.191406 C 198.769531 178.5625 197.800781 178.976562 196.839844 179.347656 C 200.34375 185.476562 202.503906 192.519531 203.074219 199.535156 C 203.628906 206.078125 203.132812 213.878906 198.527344 218.992188 C 197.859375 219.707031 197.320312 220.703125 196.230469 219.933594 C 195.652344 219.503906 195.234375 218.277344 194.992188 217.59375 C 194.476562 216.183594 194.277344 214.644531 194.242188 213.175781 C 194.132812 209.929688 194.800781 206.675781 195.371094 203.488281 C 196.867188 195.320312 198.289062 187.101562 199.703125 178.921875 C 200.125 176.445312 196.253906 175.855469 195.875 178.339844 C 194.582031 186.277344 193.25 194.210938 192.046875 202.125 C 191.128906 207.882812 189.886719 214.367188 192.578125 219.898438 C 193.582031 222.074219 195.40625 224.503906 198.167969 223.328125 C 200.566406 222.273438 202.421875 219.410156 203.582031 217.175781 C 206.488281 211.636719 206.820312 204.925781 206.332031 198.78125 C 205.722656 191.15625 203.324219 183.992188 199.457031 177.417969 C 198.570312 175.90625 196.488281 177.140625 196.570312 178.574219 C 196.902344 186.589844 197.628906 194.578125 198.792969 202.5 C 199.660156 208.402344 199.929688 216.835938 204.796875 221.0625 C 209.015625 224.761719 215.25 223.683594 217.28125 218.226562 C 218.449219 215.085938 217.71875 211.660156 216.773438 208.546875 C 215.742188 205.121094 214.34375 201.851562 212.765625 198.640625 C 209.097656 191.324219 204.390625 184.625 199.675781 177.96875 C 198.648438 176.519531 196.253906 177.835938 196.949219 179.492188 C 200.066406 187.027344 203.082031 194.671875 206.566406 202.046875 C 209.34375 207.851562 212.871094 213.550781 218.40625 217.0625 C 220.921875 218.648438 224.160156 220 226.839844 217.953125 C 229.121094 216.234375 229.761719 213.144531 229.089844 210.503906 C 228.269531 207.109375 225.890625 204.078125 223.898438 201.320312 C 221.726562 198.320312 219.410156 195.429688 216.941406 192.6875 C 211.226562 186.394531 204.792969 180.855469 197.671875 176.15625 C 196.1875 175.15625 194.167969 176.832031 195.300781 178.425781 C 203.507812 189.871094 212.972656 202.675781 226.058594 208.925781 C 228.105469 209.882812 230.832031 210.640625 232.972656 209.585938 C 235.765625 208.203125 235.523438 204.980469 234.472656 202.539062 C 231.851562 196.285156 226.929688 191.277344 221.285156 187.621094 C 213.839844 182.789062 205.238281 180.191406 196.695312 178.03125 C 195.445312 177.757812 194.894531 179.695312 196.039062 180.085938 Z M 196.039062 180.085938 " fill-opacity="1" fill-rule="nonzero"/></g></g></g><g clip-path="url(#9f35a6d2ba)"><g clip-path="url(#e88e32f611)"><g clip-path="url(#a5dd992c71)"><path fill="#ffde59" d="M 239.445312 202.691406 C 237.726562 198.125 234.957031 194.261719 231.105469 191.265625 C 230.449219 190.777344 229.707031 191.699219 230.316406 192.222656 C 233.78125 195.203125 236.4375 198.964844 238.03125 203.210938 C 238.410156 204.128906 239.785156 203.5625 239.445312 202.691406 Z M 239.445312 202.691406 " fill-opacity="1" fill-rule="nonzero"/></g></g></g><g clip-path="url(#24d9556444)"><g clip-path="url(#602b1b4c71)"><g clip-path="url(#5e2b50cc06)"><path fill="#826a45" d="M 193.019531 142.367188 C 186.304688 151.105469 180.625 160.683594 176.28125 170.804688 C 174.027344 176.042969 172.066406 181.871094 173.570312 187.394531 C 173.867188 188.523438 174.421875 189.675781 175.484375 190.105469 C 176.765625 190.640625 178.167969 189.867188 179.246094 188.972656 C 181.898438 186.746094 183.78125 183.710938 185.398438 180.648438 C 191.484375 168.996094 194.59375 155.863281 194.332031 142.730469 " fill-opacity="1" fill-rule="nonzero"/></g></g></g><g clip-path="url(#403ae82ec4)"><g clip-path="url(#5a04abc85d)"><g clip-path="url(#8a72b7587f)"><path fill="#826a45" d="M 192.375 141.757812 C 187.332031 148.183594 182.8125 155.046875 178.964844 162.257812 C 175.566406 168.585938 171.726562 175.738281 171.566406 183.128906 C 171.515625 185.898438 171.882812 190.207031 174.8125 191.472656 C 177.742188 192.738281 180.5625 190.015625 182.320312 187.988281 C 187.1875 182.414062 190.054688 174.671875 192.234375 167.675781 C 194.75 159.625 196.070312 151.085938 195.832031 142.632812 C 195.769531 140.667969 192.785156 140.808594 192.789062 142.761719 C 192.835938 155.640625 190.230469 168.199219 184.25 179.636719 C 182.746094 182.574219 180.933594 185.863281 178.210938 187.835938 C 177.785156 188.160156 176.976562 188.789062 176.375 188.695312 C 175.488281 188.539062 175.136719 187.25 174.984375 186.566406 C 174.589844 185.066406 174.515625 183.453125 174.609375 181.875 C 175.046875 175.425781 178.367188 169.054688 181.191406 163.34375 C 184.710938 156.15625 188.921875 149.347656 193.726562 142.929688 C 194.382812 142.0625 193.101562 140.847656 192.375 141.757812 Z M 192.375 141.757812 " fill-opacity="1" fill-rule="nonzero"/></g></g></g><g clip-path="url(#663113c3d9)"><g clip-path="url(#4607c91cf9)"><g clip-path="url(#d7d69cf784)"><path fill="#ffde59" d="M 196.105469 141.183594 C 191.648438 130.011719 186.285156 118.351562 188.695312 106.019531 C 188.992188 104.453125 190.257812 98.152344 192.492188 98.503906 C 194.726562 98.851562 195.285156 103.082031 195.589844 104.742188 C 196.667969 110.589844 196.589844 116.609375 195.976562 122.488281 C 195.265625 129.113281 193.808594 135.640625 192.363281 142.113281 C 193.40625 142.210938 194.425781 142.277344 195.503906 142.355469 C 193.746094 130.449219 194.199219 118.269531 197.015625 106.550781 C 197.652344 103.933594 198.1875 100.113281 200.578125 98.453125 C 204.167969 96.011719 205.441406 100.65625 205.699219 103.375 C 206.246094 108.933594 204.242188 114.398438 202.039062 119.410156 C 199.042969 126.207031 195.664062 132.863281 192.476562 139.589844 C 193.417969 139.90625 194.378906 140.257812 195.316406 140.574219 C 196.941406 133.25 198.601562 125.90625 201.28125 118.925781 C 202.5625 115.644531 204.046875 112.375 205.890625 109.363281 C 207.574219 106.550781 210.980469 102.175781 214.832031 104.109375 C 218.28125 105.867188 217.484375 110.640625 215.960938 113.398438 C 214.226562 116.582031 211.507812 119.386719 209.15625 122.144531 C 203.894531 128.320312 198.285156 134.183594 192.382812 139.75 C 193.265625 140.199219 194.183594 140.628906 195.0625 141.082031 C 197.214844 134.640625 200.882812 128.574219 205.550781 123.667969 C 209.886719 119.074219 215.804688 114.429688 222.425781 114.457031 C 223.367188 114.480469 224.425781 114.226562 224.570312 115.5 C 224.632812 116.195312 224.023438 117.277344 223.6875 117.886719 C 223.003906 119.164062 222.027344 120.292969 220.996094 121.257812 C 218.738281 123.417969 215.976562 125.027344 213.324219 126.660156 C 206.507812 130.820312 199.695312 135.070312 192.921875 139.300781 C 190.878906 140.585938 192.9375 143.742188 194.960938 142.421875 C 201.484375 138.257812 208.03125 134.128906 214.476562 129.917969 C 219.195312 126.886719 224.644531 123.621094 226.886719 118.144531 C 227.804688 116.03125 228.375 113.164062 225.765625 111.933594 C 223.46875 110.890625 220.226562 111.394531 217.882812 111.996094 C 212.042969 113.460938 207.019531 117.527344 202.921875 121.816406 C 197.839844 127.136719 194.238281 133.453125 192.003906 140.4375 C 191.488281 142.046875 193.707031 142.75 194.683594 141.769531 C 200.21875 136.394531 205.484375 130.753906 210.425781 124.839844 C 214.101562 120.433594 219.980469 114.832031 219.890625 108.632812 C 219.839844 103.234375 215.070312 99.453125 209.851562 101.496094 C 206.851562 102.671875 204.863281 105.386719 203.234375 108.066406 C 201.433594 111 199.988281 114.097656 198.695312 117.289062 C 195.796875 124.609375 194.011719 132.28125 192.257812 139.929688 C 191.878906 141.597656 194.359375 142.472656 195.097656 140.910156 C 198.503906 133.84375 202.058594 126.78125 205.113281 119.550781 C 207.496094 113.839844 209.324219 107.65625 208.292969 101.433594 C 207.820312 98.613281 206.714844 95.421875 203.53125 94.8125 C 200.832031 94.277344 198.207031 95.796875 196.742188 97.976562 C 194.832031 100.738281 194.183594 104.390625 193.484375 107.585938 C 192.722656 111.066406 192.132812 114.582031 191.75 118.109375 C 190.898438 126.242188 191.050781 134.410156 192.246094 142.53125 C 192.476562 144.238281 194.972656 144.613281 195.386719 142.777344 C 198.339844 129.550781 201.457031 114.554688 197.554688 101.164062 C 196.925781 99.078125 195.722656 96.636719 193.59375 95.777344 C 190.8125 94.660156 188.65625 96.898438 187.578125 99.21875 C 184.773438 105.105469 184.335938 111.847656 185.332031 118.242188 C 186.636719 126.679688 190.289062 134.515625 194.214844 142.027344 C 194.816406 143.101562 196.5625 142.253906 196.105469 141.183594 Z M 196.105469 141.183594 " fill-opacity="1" fill-rule="nonzero"/></g></g></g><g clip-path="url(#d8ef26e970)"><g clip-path="url(#7693f516e8)"><g clip-path="url(#1184fbdb00)"><path fill="#ffde59" d="M 184.5 95.554688 C 182.328125 99.710938 181.332031 104.175781 181.648438 108.859375 C 181.722656 109.644531 182.859375 109.585938 182.84375 108.8125 C 182.757812 104.417969 183.753906 100.101562 185.777344 96.234375 C 186.195312 95.375 184.90625 94.75 184.5 95.554688 Z M 184.5 95.554688 " fill-opacity="1" fill-rule="nonzero"/></g></g></g><g clip-path="url(#ad79eaf5f5)"><g clip-path="url(#5ea3be4a32)"><g clip-path="url(#3e11288531)"><path fill="#826a45" d="M 175.042969 139.511719 C 176.285156 150.460938 178.855469 161.296875 182.765625 171.59375 C 184.785156 176.925781 187.425781 182.480469 192.34375 185.410156 C 193.339844 186.011719 194.539062 186.457031 195.605469 186.027344 C 196.894531 185.523438 197.367188 183.992188 197.519531 182.597656 C 197.882812 179.152344 197.125 175.664062 196.160156 172.335938 C 192.441406 159.730469 185.554688 148.121094 176.242188 138.863281 " fill-opacity="1" fill-rule="nonzero"/></g></g></g><g clip-path="url(#6eeb972abc)"><g clip-path="url(#ed12e89454)"><g clip-path="url(#3f3f5652f4)"><path fill="#826a45" d="M 174.160156 139.519531 C 174.996094 147.648438 176.515625 155.722656 178.753906 163.582031 C 180.707031 170.492188 182.917969 178.304688 187.9375 183.734375 C 189.828125 185.757812 193.085938 188.601562 196.070312 187.476562 C 199.058594 186.351562 199.195312 182.433594 199.046875 179.753906 C 198.675781 172.363281 195.359375 164.804688 192.0625 158.257812 C 188.28125 150.71875 183.292969 143.660156 177.25 137.746094 C 175.839844 136.375 173.792969 138.554688 175.152344 139.957031 C 184.136719 149.1875 190.988281 160.027344 194.632812 172.40625 C 195.59375 175.566406 196.574219 179.191406 195.988281 182.5 C 195.910156 183.03125 195.761719 184.046875 195.261719 184.394531 C 194.515625 184.894531 193.371094 184.214844 192.785156 183.828125 C 191.457031 183.023438 190.28125 181.914062 189.253906 180.714844 C 185.089844 175.777344 183.046875 168.886719 181.113281 162.816406 C 178.648438 155.199219 176.945312 147.378906 175.945312 139.425781 C 175.8125 138.34375 174.046875 138.359375 174.160156 139.519531 Z M 174.160156 139.519531 " fill-opacity="1" fill-rule="nonzero"/></g></g></g><g clip-path="url(#b983c0eee1)"><g clip-path="url(#5355934b57)"><g clip-path="url(#18a21f4e1c)"><path fill="#ffde59" d="M 176.441406 136.511719 C 165.46875 131.578125 153.511719 126.921875 146.675781 116.375 C 145.804688 115.042969 142.335938 109.632812 144.183594 108.332031 C 146.035156 107.03125 149.378906 109.683594 150.75 110.667969 C 155.589844 114.125 159.714844 118.507812 163.355469 123.160156 C 167.449219 128.417969 170.9375 134.125 174.394531 139.785156 C 175.214844 139.132812 175.996094 138.46875 176.824219 137.777344 C 167.285156 130.4375 159.148438 121.359375 153.03125 110.976562 C 151.671875 108.652344 149.398438 105.53125 149.964844 102.679688 C 150.851562 98.429688 154.996094 100.886719 157.066406 102.660156 C 161.324219 106.273438 163.683594 111.601562 165.578125 116.734375 C 168.148438 123.703125 170.34375 130.839844 172.722656 137.890625 C 173.621094 137.464844 174.554688 137.050781 175.449219 136.625 C 171.53125 130.230469 167.621094 123.792969 164.695312 116.914062 C 163.335938 113.664062 162.132812 110.28125 161.367188 106.832031 C 160.625 103.636719 160.03125 98.128906 164.148438 96.839844 C 167.847656 95.710938 170.59375 99.695312 171.414062 102.738281 C 172.378906 106.234375 172.371094 110.136719 172.597656 113.757812 C 173.105469 121.851562 173.144531 129.964844 172.769531 138.070312 C 173.714844 137.78125 174.671875 137.453125 175.621094 137.164062 C 172.691406 131.039062 171.117188 124.128906 171.0625 117.355469 C 170.992188 111.039062 172.015625 103.589844 176.796875 99.007812 C 177.488281 98.367188 178.078125 97.453125 179.066406 98.265625 C 179.59375 98.722656 179.90625 99.925781 180.089844 100.597656 C 180.484375 101.992188 180.566406 103.480469 180.496094 104.890625 C 180.375 108.011719 179.503906 111.089844 178.734375 114.105469 C 176.71875 121.835938 174.777344 129.625 172.84375 137.371094 C 172.265625 139.71875 175.9375 140.554688 176.476562 138.199219 C 178.273438 130.675781 180.113281 123.15625 181.824219 115.652344 C 183.109375 110.191406 184.761719 104.058594 182.570312 98.558594 C 181.761719 96.402344 180.179688 93.941406 177.445312 94.871094 C 175.070312 95.71875 173.089844 98.332031 171.820312 100.394531 C 168.640625 105.507812 167.851562 111.917969 167.886719 117.847656 C 167.929688 125.207031 169.726562 132.253906 172.972656 138.832031 C 173.71875 140.34375 175.804688 139.308594 175.824219 137.925781 C 176.070312 130.214844 175.9375 122.5 175.378906 114.8125 C 174.960938 109.089844 175.300781 100.976562 170.925781 96.578125 C 167.140625 92.734375 161.085938 93.328125 158.746094 98.421875 C 157.410156 101.351562 157.867188 104.6875 158.554688 107.742188 C 159.300781 111.105469 160.410156 114.339844 161.699219 117.53125 C 164.703125 124.808594 168.75 131.570312 172.800781 138.289062 C 173.6875 139.75 176.078125 138.65625 175.527344 137.019531 C 173.066406 129.570312 170.714844 122.019531 167.890625 114.699219 C 165.632812 108.9375 162.652344 103.21875 157.585938 99.460938 C 155.285156 97.761719 152.273438 96.234375 149.5625 98.007812 C 147.246094 99.496094 146.414062 102.414062 146.875 105 C 147.421875 108.3125 149.492188 111.390625 151.210938 114.175781 C 153.082031 117.207031 155.097656 120.144531 157.273438 122.949219 C 162.316406 129.386719 168.097656 135.15625 174.601562 140.167969 C 175.953125 141.230469 178.007812 139.769531 177.03125 138.160156 C 169.964844 126.597656 161.789062 113.644531 149.671875 106.726562 C 147.773438 105.664062 145.210938 104.746094 143.085938 105.605469 C 140.308594 106.734375 140.3125 109.84375 141.148438 112.261719 C 143.222656 118.445312 147.59375 123.597656 152.75 127.503906 C 159.554688 132.664062 167.625 135.765625 175.667969 138.4375 C 176.84375 138.789062 177.511719 136.96875 176.441406 136.511719 Z M 176.441406 136.511719 " fill-opacity="1" fill-rule="nonzero"/></g></g></g><g clip-path="url(#5f5a3976c1)"><g clip-path="url(#aed13bef10)"><g clip-path="url(#5c0c321caf)"><path fill="#ffde59" d="M 136.390625 111.761719 C 137.714844 116.265625 140.101562 120.167969 143.582031 123.3125 C 144.179688 123.828125 144.957031 122.996094 144.410156 122.453125 C 141.296875 119.347656 139.011719 115.550781 137.78125 111.367188 C 137.484375 110.460938 136.121094 110.90625 136.390625 111.761719 Z M 136.390625 111.761719 " fill-opacity="1" fill-rule="nonzero"/></g></g></g><g clip-path="url(#6c008e7d7d)"><g clip-path="url(#bad65b3812)"><g clip-path="url(#5bab45cdb9)"><path fill="#826a45" d="M 202.082031 169.613281 C 191.96875 164.230469 181.175781 160.058594 170.050781 157.347656 C 164.292969 155.9375 157.980469 154.929688 152.578125 157.421875 C 151.472656 157.917969 150.386719 158.6875 150.128906 159.851562 C 149.800781 161.253906 150.832031 162.5625 151.9375 163.507812 C 154.675781 165.847656 158.113281 167.253906 161.53125 168.386719 C 174.519531 172.621094 188.519531 173.550781 201.933594 171.023438 " fill-opacity="1" fill-rule="nonzero"/></g></g></g><g clip-path="url(#0771e32857)"><g clip-path="url(#3c0a71d694)"><g clip-path="url(#10273bd54d)"><path fill="#826a45" d="M 202.59375 168.851562 C 195.140625 164.78125 187.328125 161.332031 179.273438 158.625 C 172.203125 156.230469 164.210938 153.527344 156.605469 154.632812 C 153.757812 155.058594 149.40625 156.175781 148.613281 159.398438 C 147.816406 162.617188 151.09375 165.042969 153.472656 166.492188 C 160.027344 170.523438 168.457031 172.132812 176.003906 173.160156 C 184.691406 174.359375 193.671875 174.242188 202.292969 172.542969 C 204.296875 172.140625 203.636719 169.101562 201.636719 169.445312 C 188.441406 171.707031 175.121094 171.199219 162.367188 167.035156 C 159.097656 166 155.414062 164.703125 152.921875 162.253906 C 152.515625 161.875 151.734375 161.152344 151.730469 160.519531 C 151.738281 159.585938 152.996094 159.003906 153.667969 158.730469 C 155.140625 158.066406 156.78125 157.710938 158.414062 157.539062 C 165.097656 156.875 172.203125 159.183594 178.542969 161.097656 C 186.519531 163.46875 194.222656 166.613281 201.625 170.4375 C 202.628906 170.960938 203.65625 169.433594 202.59375 168.851562 Z M 202.59375 168.851562 " fill-opacity="1" fill-rule="nonzero"/></g></g></g><g clip-path="url(#736d00d03a)"><g clip-path="url(#dabe18ff72)"><g clip-path="url(#14ed31034c)"><path fill="#ffde59" d="M 203.828125 172.574219 C 214.511719 166.082031 225.542969 158.578125 238.597656 158.925781 C 240.253906 158.964844 246.933594 159.175781 246.957031 161.527344 C 246.980469 163.875 242.742188 165.179688 241.09375 165.777344 C 235.285156 167.890625 229.101562 168.84375 222.96875 169.226562 C 216.054688 169.636719 209.113281 169.265625 202.230469 168.894531 C 202.308594 169.984375 202.414062 171.042969 202.519531 172.160156 C 214.421875 168.304688 226.988281 166.679688 239.484375 167.546875 C 242.277344 167.75 246.285156 167.644531 248.398438 169.808594 C 251.519531 173.066406 246.976562 175.171875 244.234375 175.902344 C 238.628906 177.421875 232.683594 176.308594 227.167969 174.910156 C 219.683594 173.007812 212.277344 170.6875 204.835938 168.578125 C 204.671875 169.597656 204.480469 170.644531 204.316406 171.660156 C 212.101562 172.066406 219.914062 172.503906 227.53125 174.050781 C 231.117188 174.796875 234.722656 175.757812 238.128906 177.132812 C 241.304688 178.375 246.371094 181.109375 245.054688 185.394531 C 243.84375 189.230469 238.8125 189.238281 235.726562 188.148438 C 232.160156 186.917969 228.820312 184.613281 225.585938 182.675781 C 218.351562 178.34375 211.375 173.605469 204.65625 168.511719 C 204.34375 169.492188 204.0625 170.507812 203.753906 171.488281 C 210.726562 172.585938 217.574219 175.300781 223.40625 179.242188 C 228.859375 182.898438 234.640625 188.164062 235.75 194.957031 C 235.890625 195.925781 236.332031 196.96875 235.050781 197.335938 C 234.351562 197.519531 233.132812 197.078125 232.449219 196.839844 C 231.023438 196.359375 229.703125 195.554688 228.53125 194.664062 C 225.929688 192.71875 223.804688 190.164062 221.675781 187.726562 C 216.238281 181.453125 210.710938 175.203125 205.210938 168.988281 C 203.539062 167.113281 200.660156 169.765625 202.363281 171.613281 C 207.75 177.582031 213.109375 183.585938 218.535156 189.46875 C 222.453125 193.78125 226.738281 198.804688 232.738281 200.164062 C 235.0625 200.742188 238.101562 200.835938 238.910156 197.945312 C 239.585938 195.414062 238.511719 192.175781 237.492188 189.875 C 234.984375 184.140625 229.953125 179.691406 224.855469 176.230469 C 218.523438 171.9375 211.429688 169.328125 203.882812 168.238281 C 202.148438 167.988281 201.808594 170.382812 202.980469 171.214844 C 209.445312 175.964844 216.132812 180.394531 223.042969 184.441406 C 228.195312 187.449219 234.945312 192.511719 241.289062 191.355469 C 246.808594 190.375 249.867188 184.835938 246.875 179.835938 C 245.15625 176.964844 242.027344 175.390625 239.003906 174.183594 C 235.683594 172.84375 232.257812 171.890625 228.765625 171.117188 C 220.765625 169.40625 212.59375 168.894531 204.449219 168.414062 C 202.675781 168.3125 202.207031 171.003906 203.933594 171.496094 C 211.761719 173.769531 219.613281 176.199219 227.550781 178.085938 C 233.816406 179.546875 240.46875 180.359375 246.671875 178.230469 C 249.480469 177.261719 252.5625 175.578125 252.636719 172.207031 C 252.722656 169.351562 250.714844 166.917969 248.230469 165.792969 C 245.066406 164.3125 241.214844 164.273438 237.816406 164.105469 C 234.117188 163.925781 230.414062 163.925781 226.730469 164.136719 C 218.246094 164.667969 209.898438 166.226562 201.78125 168.847656 C 200.074219 169.378906 200.117188 172.003906 202.070312 172.113281 C 216.136719 172.863281 232.042969 173.480469 245.101562 167.171875 C 247.128906 166.171875 249.425781 164.519531 249.941406 162.1875 C 250.609375 159.144531 247.941406 157.320312 245.378906 156.613281 C 238.859375 154.75 231.871094 155.460938 225.492188 157.582031 C 217.066406 160.371094 209.660156 165.460938 202.636719 170.78125 C 201.640625 171.582031 202.808594 173.226562 203.828125 172.574219 Z M 203.828125 172.574219 " fill-opacity="1" fill-rule="nonzero"/></g></g></g><g clip-path="url(#51f355ec8a)"><g clip-path="url(#ac1615c864)"><g clip-path="url(#94daf6cfa8)"><path fill="#ffde59" d="M 248.605469 152.828125 C 243.96875 151.3125 239.21875 151.0625 234.476562 152.195312 C 233.683594 152.402344 233.9375 153.558594 234.726562 153.410156 C 239.21875 152.566406 243.816406 152.84375 248.125 154.253906 C 249.078125 154.535156 249.496094 153.105469 248.605469 152.828125 Z M 248.605469 152.828125 " fill-opacity="1" fill-rule="nonzero"/></g></g></g><g clip-path="url(#b1827f0061)"><g clip-path="url(#d674224871)"><g clip-path="url(#2e366ede5e)"><path fill="#826a45" d="M 205.117188 154.847656 C 194.3125 157.015625 183.738281 160.496094 173.808594 165.269531 C 168.667969 167.734375 163.355469 170.835938 160.859375 175.984375 C 160.339844 177.027344 160 178.261719 160.519531 179.285156 C 161.132812 180.53125 162.695312 180.871094 164.097656 180.902344 C 167.5625 180.972656 170.972656 179.921875 174.207031 178.679688 C 186.453125 173.902344 197.429688 166.050781 205.867188 155.984375 " fill-opacity="1" fill-rule="nonzero"/></g></g></g><g clip-path="url(#ed42ab7147)"><g clip-path="url(#e3b0eb12ed)"><g clip-path="url(#fecc429593)"><path fill="#826a45" d="M 205.035156 153.96875 C 197.007812 155.492188 189.089844 157.691406 181.449219 160.589844 C 174.730469 163.125 167.132812 165.988281 162.152344 171.453125 C 160.292969 173.507812 157.738281 176.996094 159.113281 179.875 C 160.488281 182.753906 164.402344 182.558594 167.0625 182.1875 C 174.394531 181.1875 181.644531 177.238281 187.886719 173.398438 C 195.078125 168.988281 201.6875 163.421875 207.0625 156.898438 C 208.308594 155.375 205.964844 153.519531 204.683594 154.992188 C 196.253906 164.730469 186.03125 172.476562 174.007812 177.164062 C 170.941406 178.386719 167.414062 179.671875 164.0625 179.371094 C 163.53125 179.335938 162.507812 179.273438 162.117188 178.808594 C 161.554688 178.109375 162.132812 176.90625 162.46875 176.292969 C 163.160156 174.902344 164.164062 173.636719 165.273438 172.507812 C 169.839844 167.9375 176.53125 165.320312 182.414062 162.875 C 189.792969 159.773438 197.441406 157.410156 205.28125 155.738281 C 206.347656 155.515625 206.179688 153.753906 205.035156 153.96875 Z M 205.035156 153.96875 " fill-opacity="1" fill-rule="nonzero"/></g></g></g><g clip-path="url(#63773aafe3)"><g clip-path="url(#731b3b9715)"><g clip-path="url(#a5aa3300ad)"><path fill="#ffde59" d="M 208.226562 155.984375 C 212.210938 144.636719 215.832031 132.324219 225.757812 124.617188 C 227.011719 123.636719 232.109375 119.71875 233.5625 121.449219 C 235.015625 123.183594 232.65625 126.738281 231.792969 128.191406 C 228.761719 133.304688 224.746094 137.789062 220.417969 141.8125 C 215.527344 146.339844 210.136719 150.296875 204.792969 154.222656 C 205.511719 154.984375 206.238281 155.707031 207 156.472656 C 213.5 146.34375 221.855469 137.464844 231.675781 130.488281 C 233.878906 128.9375 236.796875 126.410156 239.6875 126.730469 C 243.996094 127.25 241.902344 131.589844 240.308594 133.804688 C 237.070312 138.355469 231.964844 141.15625 227.007812 143.480469 C 220.28125 146.632812 213.359375 149.425781 206.535156 152.398438 C 207.035156 153.253906 207.53125 154.152344 208.03125 155.007812 C 214.070312 150.558594 220.148438 146.117188 226.757812 142.617188 C 229.878906 140.988281 233.144531 139.5 236.519531 138.441406 C 239.636719 137.433594 245.078125 136.375 246.710938 140.363281 C 248.152344 143.957031 244.414062 147.03125 241.453125 148.105469 C 238.050781 149.367188 234.160156 149.6875 230.570312 150.222656 C 222.550781 151.414062 214.46875 152.144531 206.363281 152.457031 C 206.730469 153.378906 207.136719 154.300781 207.503906 155.222656 C 213.359375 151.78125 220.113281 149.625 226.855469 149 C 233.144531 148.390625 240.65625 148.777344 245.625 153.152344 C 246.320312 153.789062 247.285156 154.296875 246.558594 155.351562 C 246.148438 155.914062 244.972656 156.328125 244.320312 156.566406 C 242.964844 157.082031 241.488281 157.289062 240.078125 157.339844 C 236.957031 157.480469 233.816406 156.875 230.746094 156.363281 C 222.871094 155.015625 214.945312 153.742188 207.0625 152.472656 C 204.675781 152.097656 204.152344 155.828125 206.546875 156.164062 C 214.199219 157.316406 221.847656 158.511719 229.46875 159.578125 C 235.019531 160.394531 241.269531 161.515625 246.5625 158.867188 C 248.644531 157.875 250.960938 156.089844 249.800781 153.449219 C 248.757812 151.152344 245.984375 149.398438 243.820312 148.3125 C 238.457031 145.578125 232 145.335938 226.09375 145.875 C 218.765625 146.542969 211.898438 148.933594 205.621094 152.726562 C 204.175781 153.597656 205.386719 155.585938 206.765625 155.492188 C 214.46875 155.082031 222.144531 154.292969 229.757812 153.085938 C 235.425781 152.179688 243.535156 151.828125 247.546875 147.097656 C 251.054688 143 249.949219 137.015625 244.671875 135.117188 C 241.640625 134.03125 238.355469 134.773438 235.371094 135.71875 C 232.082031 136.746094 228.957031 138.128906 225.886719 139.683594 C 218.890625 143.296875 212.496094 147.898438 206.148438 152.511719 C 204.765625 153.515625 206.058594 155.804688 207.644531 155.117188 C 214.855469 152.035156 222.175781 149.046875 229.230469 145.609375 C 234.78125 142.871094 240.226562 139.417969 243.542969 134.050781 C 245.039062 131.613281 246.304688 128.484375 244.304688 125.929688 C 242.625 123.75 239.648438 123.167969 237.113281 123.847656 C 233.855469 124.675781 230.964844 127 228.335938 128.945312 C 225.476562 131.070312 222.722656 133.328125 220.113281 135.734375 C 214.121094 141.304688 208.867188 147.558594 204.425781 154.460938 C 203.480469 155.898438 205.113281 157.824219 206.632812 156.714844 C 217.554688 148.691406 229.765625 139.441406 235.628906 126.78125 C 236.523438 124.800781 237.222656 122.167969 236.1875 120.121094 C 234.824219 117.449219 231.726562 117.71875 229.390625 118.757812 C 223.40625 121.351562 218.640625 126.144531 215.1875 131.613281 C 210.625 138.832031 208.222656 147.136719 206.242188 155.375 C 205.992188 156.582031 207.863281 157.089844 208.226562 155.984375 Z M 208.226562 155.984375 " fill-opacity="1" fill-rule="nonzero"/></g></g></g><g clip-path="url(#9ceaec7cbe)"><g clip-path="url(#69801ffec4)"><g clip-path="url(#1f74fdd80b)"><path fill="#ffde59" d="M 229.480469 113.976562 C 225.109375 115.679688 221.421875 118.386719 218.582031 122.125 C 218.121094 122.761719 219.015625 123.46875 219.511719 122.875 C 222.339844 119.507812 225.929688 116.910156 229.996094 115.328125 C 230.875 114.957031 230.3125 113.636719 229.480469 113.976562 Z M 229.480469 113.976562 " fill-opacity="1" fill-rule="nonzero"/></g></g></g><g clip-path="url(#b9222d621e)"><g clip-path="url(#66e96c3816)"><g clip-path="url(#734949631b)"><path fill="#826a45" d="M 160.121094 175.144531 C 170.792969 172.394531 181.164062 168.347656 190.820312 163.046875 C 195.820312 160.308594 200.960938 156.925781 203.175781 151.648438 C 203.636719 150.578125 203.910156 149.328125 203.335938 148.335938 C 202.65625 147.125 201.078125 146.867188 199.675781 146.914062 C 196.214844 147.027344 192.863281 148.265625 189.699219 149.679688 C 177.730469 155.109375 167.191406 163.539062 159.308594 174.046875 " fill-opacity="1" fill-rule="nonzero"/></g></g></g><g clip-path="url(#5cf6af24dd)"><g clip-path="url(#26668496ff)"><g clip-path="url(#c8de63612a)"><path fill="#826a45" d="M 160.25 176.015625 C 168.183594 174.0625 175.96875 171.4375 183.441406 168.132812 C 190.019531 165.238281 197.449219 161.96875 202.128906 156.246094 C 203.871094 154.09375 206.234375 150.472656 204.707031 147.671875 C 203.179688 144.871094 199.28125 145.277344 196.648438 145.792969 C 189.378906 147.1875 182.351562 151.519531 176.324219 155.6875 C 169.382812 160.480469 163.085938 166.394531 158.066406 173.199219 C 156.902344 174.785156 159.347656 176.515625 160.546875 174.972656 C 168.441406 164.796875 178.230469 156.507812 189.984375 151.183594 C 192.980469 149.792969 196.433594 148.320312 199.792969 148.445312 C 200.324219 148.449219 201.351562 148.453125 201.765625 148.898438 C 202.367188 149.566406 201.851562 150.796875 201.550781 151.429688 C 200.9375 152.855469 200.003906 154.171875 198.957031 155.359375 C 194.640625 160.167969 188.101562 163.144531 182.359375 165.902344 C 175.15625 169.398438 167.648438 172.167969 159.90625 174.261719 C 158.855469 174.542969 159.117188 176.289062 160.25 176.015625 Z M 160.25 176.015625 " fill-opacity="1" fill-rule="nonzero"/></g></g></g><g clip-path="url(#5084eb30d2)"><g clip-path="url(#c29ea97b38)"><g clip-path="url(#cab3eb2557)"><path fill="#ffde59" d="M 156.957031 174.175781 C 153.589844 185.722656 150.632812 198.210938 141.136719 206.441406 C 139.9375 207.488281 135.0625 211.675781 133.515625 210.023438 C 131.972656 208.371094 134.136719 204.695312 134.921875 203.199219 C 137.671875 197.925781 141.441406 193.234375 145.542969 188.980469 C 150.183594 184.199219 155.355469 179.957031 160.480469 175.75 C 159.71875 175.027344 158.957031 174.34375 158.15625 173.617188 C 152.207031 184.085938 144.34375 193.398438 134.910156 200.898438 C 132.796875 202.566406 130.019531 205.246094 127.117188 205.082031 C 122.785156 204.792969 124.644531 200.351562 126.113281 198.050781 C 129.105469 193.332031 134.050781 190.261719 138.875 187.671875 C 145.421875 184.164062 152.183594 181 158.835938 177.664062 C 158.292969 176.835938 157.75 175.96875 157.203125 175.140625 C 151.414062 179.90625 145.582031 184.671875 139.171875 188.519531 C 136.140625 190.316406 132.960938 191.976562 129.648438 193.214844 C 126.589844 194.394531 121.214844 195.742188 119.367188 191.847656 C 117.738281 188.335938 121.304688 185.066406 124.203125 183.832031 C 127.53125 182.390625 131.398438 181.859375 134.953125 181.132812 C 142.898438 179.511719 150.929688 178.34375 159.007812 177.597656 C 158.589844 176.695312 158.132812 175.796875 157.714844 174.898438 C 152.054688 178.648438 145.429688 181.164062 138.730469 182.15625 C 132.484375 183.101562 124.960938 183.117188 119.765625 179.015625 C 119.035156 178.421875 118.046875 177.964844 118.714844 176.875 C 119.09375 176.289062 120.242188 175.8125 120.882812 175.539062 C 122.207031 174.953125 123.667969 174.664062 125.078125 174.539062 C 128.1875 174.230469 131.355469 174.664062 134.449219 175.007812 C 142.382812 175.933594 150.363281 176.777344 158.304688 177.617188 C 160.710938 177.863281 161.03125 174.109375 158.621094 173.90625 C 150.917969 173.167969 143.21875 172.386719 135.546875 171.734375 C 129.964844 171.214844 123.660156 170.433594 118.519531 173.363281 C 116.496094 174.464844 114.277344 176.371094 115.578125 178.949219 C 116.742188 181.183594 119.605469 182.785156 121.824219 183.753906 C 127.328125 186.195312 133.789062 186.089844 139.65625 185.234375 C 146.941406 184.167969 153.667969 181.414062 159.730469 177.289062 C 161.128906 176.339844 159.8125 174.417969 158.441406 174.589844 C 150.769531 175.414062 143.144531 176.613281 135.609375 178.230469 C 130 179.4375 121.921875 180.230469 118.171875 185.167969 C 114.886719 189.449219 116.316406 195.367188 121.683594 196.976562 C 124.769531 197.894531 128.011719 196.980469 130.941406 195.875 C 134.167969 194.667969 137.21875 193.121094 140.199219 191.402344 C 146.992188 187.421875 153.125 182.476562 159.21875 177.53125 C 160.542969 176.453125 159.128906 174.238281 157.582031 175.007812 C 150.546875 178.476562 143.398438 181.855469 136.539062 185.667969 C 131.144531 188.699219 125.894531 192.445312 122.875 197.980469 C 121.507812 200.492188 120.414062 203.6875 122.546875 206.128906 C 124.34375 208.214844 127.347656 208.636719 129.84375 207.820312 C 133.050781 206.820312 135.808594 204.34375 138.332031 202.257812 C 141.070312 199.984375 143.703125 197.578125 146.179688 195.035156 C 151.859375 189.148438 156.769531 182.625 160.832031 175.492188 C 161.695312 174.003906 159.960938 172.171875 158.503906 173.359375 C 148.03125 181.960938 136.339844 191.855469 131.167969 204.808594 C 130.378906 206.839844 129.820312 209.503906 130.96875 211.492188 C 132.472656 214.085938 135.550781 213.648438 137.828125 212.488281 C 143.664062 209.574219 148.164062 204.535156 151.316406 198.882812 C 155.484375 191.433594 157.4375 183.007812 158.96875 174.675781 C 159.15625 173.457031 157.257812 173.050781 156.957031 174.175781 Z M 156.957031 174.175781 " fill-opacity="1" fill-rule="nonzero"/></g></g></g><g clip-path="url(#f99faba7fd)"><g clip-path="url(#2c0e85ef09)"><g clip-path="url(#f4ee016907)"><path fill="#ffde59" d="M 137.996094 217.269531 C 142.269531 215.332031 145.804688 212.429688 148.4375 208.542969 C 148.863281 207.878906 147.933594 207.226562 147.46875 207.84375 C 144.828125 211.359375 141.386719 214.148438 137.410156 215.945312 C 136.550781 216.363281 137.183594 217.652344 137.996094 217.269531 Z M 137.996094 217.269531 " fill-opacity="1" fill-rule="nonzero"/></g></g></g><g clip-path="url(#4396f59489)"><g clip-path="url(#ee692deeb2)"><g clip-path="url(#7582a878d1)"><path fill="#826a45" d="M 155.683594 158.792969 C 166.285156 161.8125 177.28125 163.558594 188.289062 163.859375 C 193.988281 164.023438 200.132812 163.695312 204.710938 160.261719 C 205.648438 159.570312 206.515625 158.628906 206.523438 157.480469 C 206.546875 156.097656 205.3125 155.074219 204.082031 154.40625 C 201.035156 152.757812 197.519531 152.128906 194.074219 151.753906 C 181 150.398438 167.648438 152.351562 155.539062 157.4375 " fill-opacity="1" fill-rule="nonzero"/></g></g></g><g clip-path="url(#be21b9a9f4)"><g clip-path="url(#a687bf383a)"><g clip-path="url(#0893eab2d9)"><path fill="#826a45" d="M 155.355469 159.613281 C 163.191406 161.933594 171.234375 163.601562 179.355469 164.519531 C 186.492188 165.347656 194.554688 166.273438 201.484375 163.699219 C 204.078125 162.722656 207.945312 160.789062 208.042969 157.601562 C 208.136719 154.410156 204.566406 152.792969 202.035156 151.910156 C 195.058594 149.441406 186.804688 149.632812 179.496094 150.1875 C 171.085938 150.816406 162.660156 152.742188 154.894531 156.082031 C 153.089844 156.863281 154.324219 159.585938 156.136719 158.863281 C 168.089844 154.066406 180.722656 151.855469 193.558594 153.195312 C 196.847656 153.511719 200.570312 153.984375 203.410156 155.785156 C 203.867188 156.058594 204.75 156.582031 204.882812 157.175781 C 205.066406 158.054688 204 158.855469 203.417969 159.25 C 202.167969 160.171875 200.695312 160.835938 199.195312 161.332031 C 193.042969 163.304688 185.894531 162.570312 179.546875 162.050781 C 171.566406 161.429688 163.683594 160.027344 155.945312 157.925781 C 154.898438 157.636719 154.242188 159.277344 155.355469 159.613281 Z M 155.355469 159.613281 " fill-opacity="1" fill-rule="nonzero"/></g></g></g><g clip-path="url(#7242cf3de4)"><g clip-path="url(#45da204e29)"><g clip-path="url(#c6fa5a584e)"><path fill="#ffde59" d="M 153.441406 156.359375 C 144.703125 164.628906 135.847656 173.914062 123.492188 176.222656 C 121.929688 176.519531 115.605469 177.671875 115.109375 175.464844 C 114.609375 173.261719 118.332031 171.175781 119.765625 170.285156 C 124.800781 167.121094 130.425781 164.976562 136.113281 163.378906 C 142.535156 161.59375 149.140625 160.542969 155.6875 159.5 C 155.398438 158.492188 155.082031 157.515625 154.757812 156.488281 C 144.339844 162.515625 132.847656 166.585938 120.921875 168.292969 C 118.253906 168.664062 114.503906 169.578125 112.078125 167.96875 C 108.484375 165.53125 112.335938 162.636719 114.765625 161.394531 C 119.726562 158.832031 125.546875 158.679688 131.019531 158.878906 C 138.441406 159.15625 145.875 159.839844 153.304688 160.320312 C 153.25 159.332031 153.222656 158.308594 153.167969 157.320312 C 145.761719 158.507812 138.324219 159.675781 130.847656 159.761719 C 127.324219 159.78125 123.742188 159.609375 120.257812 159.003906 C 117.023438 158.476562 111.703125 156.925781 112.078125 152.632812 C 112.4375 148.777344 117.167969 147.753906 120.292969 148.15625 C 123.894531 148.59375 127.503906 150.085938 130.9375 151.253906 C 138.617188 153.867188 146.132812 156.917969 153.484375 160.347656 C 153.578125 159.363281 153.640625 158.355469 153.734375 157.367188 C 146.953125 157.746094 139.964844 156.574219 133.679688 154.042969 C 127.8125 151.707031 121.3125 147.921875 118.894531 141.757812 C 118.566406 140.875 117.941406 139.984375 119.074219 139.375 C 119.695312 139.0625 120.929688 139.234375 121.617188 139.320312 C 123.058594 139.480469 124.464844 139.972656 125.742188 140.574219 C 128.582031 141.878906 131.097656 143.851562 133.59375 145.714844 C 139.976562 150.519531 146.4375 155.277344 152.867188 160.015625 C 154.820312 161.441406 156.992188 158.363281 155.015625 156.96875 C 148.742188 152.441406 142.488281 147.878906 136.199219 143.441406 C 131.640625 140.175781 126.59375 136.316406 120.675781 136.25 C 118.375 136.175781 115.496094 136.703125 115.316406 139.585938 C 115.195312 142.101562 116.859375 144.929688 118.28125 146.886719 C 121.800781 151.773438 127.429688 154.945312 132.925781 157.171875 C 139.75 159.929688 146.949219 160.949219 154.265625 160.449219 C 155.949219 160.335938 155.785156 158.011719 154.515625 157.46875 C 147.476562 154.304688 140.292969 151.492188 132.972656 149.082031 C 127.519531 147.292969 120.144531 143.890625 114.414062 146.261719 C 109.417969 148.300781 107.664062 154.128906 111.484375 158.226562 C 113.683594 160.582031 116.945312 161.425781 120.03125 161.953125 C 123.425781 162.542969 126.839844 162.746094 130.28125 162.769531 C 138.152344 162.761719 145.941406 161.59375 153.699219 160.402344 C 155.386719 160.136719 155.285156 157.511719 153.5625 157.398438 C 145.738281 156.839844 137.863281 156.140625 130.015625 155.96875 C 123.828125 155.863281 117.40625 156.441406 112.003906 159.695312 C 109.554688 161.175781 106.996094 163.378906 107.605469 166.566406 C 108.101562 169.269531 110.484375 171.152344 113.046875 171.707031 C 116.324219 172.464844 119.957031 171.71875 123.183594 171.191406 C 126.699219 170.613281 130.183594 169.867188 133.605469 168.921875 C 141.480469 166.710938 149.015625 163.558594 156.121094 159.453125 C 157.621094 158.605469 157.050781 156.148438 155.191406 156.441406 C 141.808594 158.574219 126.71875 161.210938 115.710938 169.777344 C 114.007812 171.132812 112.179688 173.152344 112.164062 175.445312 C 112.15625 178.445312 115.03125 179.621094 117.582031 179.769531 C 124.09375 180.203125 130.519531 178.121094 136.09375 174.839844 C 143.457031 170.511719 149.394531 164.230469 154.925781 157.808594 C 155.703125 156.851562 154.269531 155.542969 153.441406 156.359375 Z M 153.441406 156.359375 " fill-opacity="1" fill-rule="nonzero"/></g></g></g><g clip-path="url(#024a4c2680)"><g clip-path="url(#a11991d16b)"><g clip-path="url(#561dc2a144)"><path fill="#ffde59" d="M 115.3125 183.980469 C 119.980469 184.46875 124.5 183.746094 128.734375 181.722656 C 129.4375 181.367188 128.964844 180.332031 128.25 180.628906 C 124.195312 182.328125 119.816406 182.996094 115.476562 182.542969 C 114.523438 182.472656 114.417969 183.898438 115.3125 183.980469 Z M 115.3125 183.980469 " fill-opacity="1" fill-rule="nonzero"/></g></g></g><g clip-path="url(#a6c333545d)"><g clip-path="url(#adb191ecce)"><g clip-path="url(#3c5c6d8bbe)"><path fill="#826a45" d="M 181.582031 186.492188 C 181.050781 175.050781 179.136719 163.636719 175.792969 152.683594 C 174.070312 147.015625 171.714844 141.070312 166.816406 137.691406 C 165.828125 136.996094 164.613281 136.457031 163.480469 136.828125 C 162.105469 137.261719 161.507812 138.8125 161.253906 140.25 C 160.636719 143.796875 161.183594 147.46875 161.953125 150.984375 C 164.9375 164.320312 171.277344 176.832031 180.292969 187.082031 " fill-opacity="1" fill-rule="nonzero"/></g></g></g><g clip-path="url(#38da802ff4)"><g clip-path="url(#06409fa749)"><g clip-path="url(#98b4d4e89f)"><path fill="#826a45" d="M 182.5 186.542969 C 182.195312 178.058594 181.179688 169.578125 179.398438 161.269531 C 177.851562 153.96875 176.101562 145.714844 171.269531 139.734375 C 169.453125 137.503906 166.269531 134.332031 163.09375 135.289062 C 159.917969 136.25 159.507812 140.304688 159.472656 143.089844 C 159.347656 150.785156 162.261719 158.855469 165.226562 165.871094 C 168.628906 173.953125 173.308594 181.617188 179.167969 188.167969 C 180.535156 189.6875 182.8125 187.570312 181.5 186.023438 C 172.820312 175.828125 166.464844 164.109375 163.542969 151.019531 C 162.765625 147.675781 162 143.847656 162.835938 140.457031 C 162.953125 139.914062 163.179688 138.871094 163.71875 138.542969 C 164.527344 138.074219 165.667969 138.859375 166.25 139.300781 C 167.570312 140.226562 168.710938 141.457031 169.695312 142.773438 C 173.675781 148.183594 175.3125 155.472656 176.898438 161.902344 C 178.929688 169.972656 180.152344 178.199219 180.640625 186.519531 C 180.703125 187.648438 182.535156 187.753906 182.5 186.542969 Z M 182.5 186.542969 " fill-opacity="1" fill-rule="nonzero"/></g></g></g><g clip-path="url(#59a6dffc49)"><g clip-path="url(#dd7ba55438)"><g clip-path="url(#bb5d168ef6)"><path fill="#ffde59" d="M 179.925781 189.503906 C 190.960938 195.382812 203.039062 201.042969 209.398438 212.453125 C 210.210938 213.894531 213.433594 219.746094 211.425781 220.96875 C 209.417969 222.1875 206.132812 219.207031 204.777344 218.089844 C 200 214.171875 196.023438 209.339844 192.566406 204.261719 C 188.6875 198.523438 185.464844 192.363281 182.273438 186.253906 C 181.378906 186.875 180.523438 187.507812 179.613281 188.167969 C 189 196.441406 196.808594 206.417969 202.433594 217.609375 C 203.683594 220.117188 205.820312 223.511719 205.039062 226.429688 C 203.824219 230.777344 199.699219 227.941406 197.671875 225.957031 C 193.503906 221.914062 191.429688 216.226562 189.820312 210.769531 C 187.636719 203.363281 185.855469 195.8125 183.875 188.332031 C 182.914062 188.710938 181.917969 189.082031 180.960938 189.460938 C 184.582031 196.363281 188.1875 203.308594 190.746094 210.648438 C 191.929688 214.113281 192.945312 217.703125 193.5 221.335938 C 194.050781 224.695312 194.28125 230.453125 189.925781 231.503906 C 186.007812 232.417969 183.4375 228.097656 182.796875 224.882812 C 182.039062 221.191406 182.316406 217.144531 182.332031 213.371094 C 182.367188 204.941406 182.886719 196.523438 183.839844 188.144531 C 182.839844 188.378906 181.824219 188.652344 180.820312 188.886719 C 183.433594 195.441406 184.589844 202.71875 184.171875 209.746094 C 183.8125 216.300781 182.230469 223.960938 176.953125 228.378906 C 176.191406 228.992188 175.519531 229.902344 174.550781 228.992188 C 174.035156 228.480469 173.792969 227.210938 173.652344 226.5 C 173.335938 225.03125 173.355469 223.480469 173.527344 222.019531 C 173.871094 218.792969 174.984375 215.660156 175.992188 212.585938 C 178.617188 204.707031 181.171875 196.765625 183.714844 188.863281 C 184.476562 186.46875 180.722656 185.347656 180.003906 187.753906 C 177.617188 195.433594 175.1875 203.105469 172.894531 210.769531 C 171.183594 216.34375 169.046875 222.589844 170.9375 228.441406 C 171.628906 230.738281 173.097656 233.398438 175.996094 232.621094 C 178.519531 231.910156 180.753906 229.335938 182.214844 227.285156 C 185.867188 222.203125 187.128906 215.605469 187.503906 209.457031 C 187.96875 201.820312 186.59375 194.386719 183.679688 187.34375 C 183.011719 185.71875 180.777344 186.652344 180.660156 188.082031 C 179.871094 196.066406 179.472656 204.074219 179.519531 212.085938 C 179.558594 218.050781 178.644531 226.441406 182.875 231.304688 C 186.535156 235.554688 192.859375 235.359375 195.636719 230.234375 C 197.226562 227.292969 196.984375 223.796875 196.480469 220.582031 C 195.941406 217.042969 195.011719 213.613281 193.898438 210.214844 C 191.285156 202.457031 187.558594 195.167969 183.820312 187.917969 C 183.003906 186.339844 180.449219 187.308594 180.90625 189.042969 C 182.941406 196.9375 184.859375 204.933594 187.28125 212.71875 C 189.222656 218.855469 191.917969 224.992188 196.910156 229.242188 C 199.179688 231.164062 202.195312 232.953125 205.132812 231.300781 C 207.636719 229.917969 208.703125 226.949219 208.402344 224.238281 C 208.066406 220.761719 206.132812 217.429688 204.542969 214.421875 C 202.8125 211.148438 200.921875 207.960938 198.863281 204.902344 C 194.078125 197.871094 188.480469 191.488281 182.085938 185.84375 C 180.757812 184.644531 178.523438 186.019531 179.425781 187.757812 C 185.953125 200.238281 193.535156 214.238281 205.621094 222.25 C 207.519531 223.484375 210.113281 224.617188 212.378906 223.871094 C 215.335938 222.890625 215.546875 219.667969 214.847656 217.105469 C 213.121094 210.546875 208.949219 204.898438 203.871094 200.492188 C 197.171875 194.667969 189.015625 190.894531 180.859375 187.5625 C 179.660156 187.117188 178.84375 188.960938 179.925781 189.503906 Z M 179.925781 189.503906 " fill-opacity="1" fill-rule="nonzero"/></g></g></g><g clip-path="url(#602f7d406d)"><g clip-path="url(#d594a26f3f)"><g clip-path="url(#6dc62b6246)"><path fill="#ffde59" d="M 219.746094 217.949219 C 218.683594 213.1875 216.480469 208.972656 213.085938 205.46875 C 212.503906 204.894531 211.640625 205.703125 212.167969 206.308594 C 215.183594 209.742188 217.289062 213.835938 218.277344 218.261719 C 218.523438 219.226562 219.964844 218.855469 219.746094 217.949219 Z M 219.746094 217.949219 " fill-opacity="1" fill-rule="nonzero"/></g></g></g></svg>